<svg version="1.1" xmlns="http://www.w3.org/2000/svg" xmlns:xlink="http://www.w3.org/1999/xlink" xmlns:i="http://ns.adobe.com/AdobeIllustrator/10.0/" xmlns:sketch="http://www.bohemiancoding.com/sketch/ns" height="100%" width="100%" x="0px" y="0px" viewBox="0 0 640 480" xml:space="preserve" preserveAspectRatio="xMidYMid meet" class="">
    <rect x="0px" y="0px" width="100%" height="100%" fill="#4d9660"></rect>
    <g class="logo-container-box logoContainerBox" transform="scale(0.75) translate(106.66662851969403,79.99998474121094)">
        <g class="containerBody" transform="scale(0.7785120998684403) translate(28.125503135279757,68.28037231605941)">
            <g class="sampleIconBox" transform="scale(1) translate(0,0)">
                <g class="sampleIcons_1" transform="scale(3.1249277310395454) translate(25.344844886720175,60.801274967193606)" fill="#161e08">
                    <g>
                        <path fill-rule="evenodd" clip-rule="evenodd" d="M31.415,10.586l-10-10C20.919,0.09,20.2-0.109,19.519,0.059   c-0.359,0.088-0.68,0.273-0.934,0.527c-0.227,0.227-0.398,0.508-0.496,0.822c-0.453,1.469-1.236,2.746-2.395,3.904   C14.146,6.859,12.13,8.031,9.997,9.27c-2.264,1.312-4.603,2.672-6.52,4.588c-1.629,1.631-2.738,3.445-3.388,5.551   c-0.219,0.711-0.028,1.48,0.496,2.006l10,10c0.496,0.496,1.215,0.695,1.896,0.527c0.359-0.09,0.68-0.273,0.934-0.527   c0.227-0.227,0.398-0.508,0.496-0.824c0.454-1.469,1.237-2.746,2.397-3.904c1.547-1.547,3.562-2.717,5.697-3.955   c2.262-1.314,4.602-2.674,6.518-4.59c1.629-1.629,2.738-3.445,3.389-5.551C32.13,11.881,31.938,11.109,31.415,10.586z M12,30   C8.688,26.688,5.312,23.311,2,20c2.842-9.201,15.16-8.799,18-18c3.312,3.311,6.689,6.688,10.002,10   C27.159,21.199,14.841,20.799,12,30z"></path>
                        <path fill-rule="evenodd" clip-rule="evenodd" d="M19.562,14.9c-0.326-0.273-0.654-0.459-0.984-0.551   c-0.328-0.092-0.656-0.129-0.988-0.105c-0.328,0.025-0.664,0.1-1,0.229c-0.336,0.131-0.674,0.273-1.014,0.438   c-0.537-0.617-1.074-1.227-1.611-1.793c0.242-0.219,0.477-0.33,0.703-0.338c0.227-0.01,0.445,0.014,0.652,0.066   c0.211,0.053,0.404,0.098,0.582,0.133c0.18,0.035,0.336-0.004,0.473-0.119c0.145-0.125,0.225-0.287,0.236-0.482   c0.01-0.197-0.064-0.389-0.229-0.576c-0.211-0.242-0.465-0.389-0.77-0.443c-0.301-0.053-0.609-0.049-0.93,0.021   c-0.316,0.072-0.617,0.191-0.902,0.359s-0.514,0.34-0.684,0.508c-0.065-0.062-0.13-0.123-0.195-0.184   c-0.072-0.066-0.162-0.102-0.27-0.1c-0.109,0-0.199,0.047-0.273,0.133c-0.072,0.084-0.105,0.182-0.092,0.285   c0.01,0.107,0.053,0.189,0.127,0.252c0.065,0.055,0.13,0.109,0.195,0.166c-0.256,0.309-0.467,0.65-0.633,1.01   c-0.168,0.361-0.268,0.719-0.305,1.066c-0.039,0.35-0.002,0.67,0.105,0.967c0.107,0.299,0.305,0.553,0.594,0.793   c0.471,0.391,1.025,0.557,1.668,0.52c0.641-0.039,1.332-0.23,2.075-0.629c0.59,0.682,1.182,1.359,1.773,1.988   c-0.25,0.211-0.469,0.332-0.662,0.371c-0.193,0.041-0.365,0.037-0.521-0.01c-0.156-0.049-0.301-0.119-0.434-0.209   c-0.133-0.092-0.264-0.17-0.395-0.234c-0.129-0.064-0.262-0.1-0.398-0.102s-0.281,0.064-0.441,0.201   c-0.164,0.143-0.246,0.309-0.246,0.496c0,0.186,0.086,0.375,0.254,0.566c0.17,0.191,0.391,0.352,0.658,0.479   s0.569,0.207,0.901,0.229c0.332,0.023,0.682-0.027,1.051-0.164c0.371-0.135,0.738-0.379,1.1-0.742   c0.174,0.17,0.35,0.332,0.525,0.488c0.074,0.064,0.164,0.096,0.273,0.088c0.105-0.004,0.197-0.053,0.27-0.141   c0.074-0.09,0.105-0.189,0.094-0.293c-0.01-0.105-0.053-0.186-0.125-0.244c-0.176-0.141-0.352-0.289-0.527-0.445   c0.299-0.367,0.539-0.754,0.717-1.137c0.178-0.385,0.283-0.756,0.318-1.1c0.035-0.346-0.006-0.658-0.119-0.941   C20.046,15.383,19.847,15.137,19.562,14.9z M13.971,15.578c-0.283,0.012-0.53-0.082-0.746-0.291   c-0.092-0.088-0.156-0.195-0.195-0.322c-0.041-0.127-0.055-0.266-0.039-0.418c0.014-0.15,0.059-0.307,0.137-0.465   c0.074-0.158,0.184-0.316,0.324-0.469c0.507,0.504,1.013,1.057,1.52,1.629C14.588,15.453,14.254,15.566,13.971,15.578z    M18.688,17.58c-0.09,0.166-0.193,0.314-0.314,0.443c-0.561-0.566-1.121-1.188-1.68-1.826c0.143-0.064,0.293-0.131,0.455-0.199   s0.324-0.113,0.486-0.141c0.166-0.025,0.33-0.018,0.494,0.021c0.162,0.041,0.316,0.129,0.459,0.268   c0.141,0.141,0.23,0.287,0.266,0.445c0.039,0.16,0.041,0.322,0.014,0.488C18.839,17.246,18.78,17.412,18.688,17.58z"></path>
                        <path fill-rule="evenodd" clip-rule="evenodd" d="M14.717,22.18h-0.002c-0.625,0.48-1.235,0.986-1.8,1.553   c-0.543,0.543-1.034,1.115-1.461,1.699l-0.684,0.934l0.002,0.002c-0.125,0.195-0.104,0.457,0.066,0.627   c0.195,0.195,0.514,0.195,0.71,0c0.03-0.031,0.054-0.064,0.074-0.1l0.639-0.875c0.396-0.541,0.854-1.074,1.361-1.58   c0.561-0.561,1.081-0.994,1.714-1.475l-0.002-0.002c0.018-0.014,0.035-0.025,0.051-0.041c0.196-0.195,0.196-0.514,0-0.709   C15.204,22.029,14.914,22.021,14.717,22.18z"></path>
                        <path fill-rule="evenodd" clip-rule="evenodd" d="M18.378,7.715c-0.523,0.523-1.09,0.994-1.678,1.443   c-0.041,0.023-0.082,0.049-0.117,0.086c-0.197,0.197-0.197,0.518,0,0.715c0.191,0.193,0.5,0.197,0.699,0.014l0.004,0.002   c0.625-0.48,1.234-0.988,1.799-1.553c0.543-0.543,1.033-1.113,1.461-1.697l0.684-0.938l-0.002-0.002   c0.17-0.199,0.162-0.496-0.025-0.684c-0.197-0.197-0.516-0.197-0.713,0c-0.037,0.037-0.064,0.08-0.088,0.123l-0.664,0.91   C19.341,6.678,18.884,7.209,18.378,7.715z"></path>
                    </g>
                </g>
            </g>
            <g class="sampleTexts_1" transform="scale(1) translate(0.000006103515630684342,25.70500373840332)">
                <g class="logo--name svgLogoName_1 logoNameBox" transform="scale(1) translate(195.80999984741212,238.9900016784668)" fill="#ffffff">
                    <path d="M26.78-49.39L26.78-49.39Q34.49-49.39 40.97-46.62L40.97-46.62L40.97-46.62Q47.45-43.85 51.30-38.27L51.30-38.27L51.30-38.27Q55.15-32.69 55.15-24.70L55.15-24.70L55.15-24.70Q55.15-16.70 51.30-11.12L51.30-11.12L51.30-11.12Q47.45-5.54 40.97-2.77L40.97-2.77L40.97-2.77Q34.49 0 26.78 0L26.78 0L2.59 0L2.59-5.98L11.88-5.98L11.88-43.42L2.59-43.42L2.59-49.39L26.78-49.39ZM26.06-5.98L26.06-5.98Q35.28-5.98 41.33-10.55L41.33-10.55L41.33-10.55Q47.38-15.12 47.38-24.70L47.38-24.70L47.38-24.70Q47.38-34.34 41.33-38.88L41.33-38.88L41.33-38.88Q35.28-43.42 26.06-43.42L26.06-43.42L19.30-43.42L19.30-5.98L26.06-5.98ZM71.57-41.62L71.57-41.62Q69.26-41.62 67.68-42.84L67.68-42.84L67.68-42.84Q66.10-44.06 66.10-45.94L66.10-45.94L66.10-45.94Q66.10-47.88 67.68-49.14L67.68-49.14L67.68-49.14Q69.26-50.40 71.57-50.40L71.57-50.40L71.57-50.40Q74.02-50.40 75.60-49.14L75.60-49.14L75.60-49.14Q77.18-47.88 77.18-45.94L77.18-45.94L77.18-45.94Q77.18-44.06 75.60-42.84L75.60-42.84L75.60-42.84Q74.02-41.62 71.57-41.62L71.57-41.62ZM75.89-5.69L83.59-5.69L83.59 0L61.20 0L61.20-5.69L68.83-5.69L68.83-28.22L61.20-28.22L61.20-33.91L75.89-33.91L75.89-5.69ZM104.62-20.02L104.62-20.02Q111.24-18.22 114.80-15.52L114.80-15.52L114.80-15.52Q118.37-12.82 118.37-8.28L118.37-8.28L118.37-8.28Q118.37-4.10 114.84-1.55L114.84-1.55L114.84-1.55Q111.31 1.01 106.13 1.01L106.13 1.01L106.13 1.01Q102.53 1.01 99.04-0.25L99.04-0.25L99.04-0.25Q95.54-1.51 92.81-3.74L92.81-3.74L92.81 0.07L87.34 0.07L87.34-10.94L90.43-11.23L90.43-11.23Q93.17-8.14 97.31-5.94L97.31-5.94L97.31-5.94Q101.45-3.74 105.41-3.74L105.41-3.74L105.41-3.74Q108.07-3.74 109.58-4.75L109.58-4.75L109.58-4.75Q111.10-5.76 111.10-7.63L111.10-7.63L111.10-7.63Q111.10-9.79 108.72-11.20L108.72-11.20L108.72-11.20Q106.34-12.60 100.94-14.04L100.94-14.04L100.94-14.04Q94.46-15.77 90.97-18.40L90.97-18.40L90.97-18.40Q87.48-21.02 87.48-25.27L87.48-25.27L87.48-25.27Q87.48-27.94 88.96-30.13L88.96-30.13L88.96-30.13Q90.43-32.33 93.13-33.59L93.13-33.59L93.13-33.59Q95.83-34.85 99.36-34.85L99.36-34.85L99.36-34.85Q102.82-34.85 105.95-33.70L105.95-33.70L105.95-33.70Q109.08-32.54 111.38-30.46L111.38-30.46L111.38-33.91L116.78-33.91L116.78-22.97L113.62-22.61L113.62-22.61Q111.60-25.99 108.11-28.04L108.11-28.04L108.11-28.04Q104.62-30.10 101.16-30.10L101.16-30.10L101.16-30.10Q98.35-30.10 96.55-28.98L96.55-28.98L96.55-28.98Q94.75-27.86 94.75-26.06L94.75-26.06L94.75-26.06Q94.75-24.12 97.13-22.79L97.13-22.79L97.13-22.79Q99.50-21.46 104.62-20.02L104.62-20.02ZM156.67-10.08L159.84-5.47L159.84-5.47Q153.14 1.01 144.22 1.01L144.22 1.01L144.22 1.01Q139.46 1.01 135.29-1.22L135.29-1.22L135.29-1.22Q131.11-3.46 128.59-7.52L128.59-7.52L128.59-7.52Q126.07-11.59 126.07-16.85L126.07-16.85L126.07-16.85Q126.07-21.82 128.38-25.96L128.38-25.96L128.38-25.96Q130.68-30.10 134.57-32.47L134.57-32.47L134.57-32.47Q138.46-34.85 142.99-34.85L142.99-34.85L142.99-34.85Q150.19-34.85 154.22-29.74L154.22-29.74L154.22-33.91L159.34-33.91L159.34-22.03L156.31-21.82L156.31-21.82Q152.78-29.02 145.08-29.02L145.08-29.02L145.08-29.02Q141.77-29.02 139.10-27.47L139.10-27.47L139.10-27.47Q136.44-25.92 134.93-23.18L134.93-23.18L134.93-23.18Q133.42-20.45 133.42-16.92L133.42-16.92L133.42-16.92Q133.42-13.46 135.04-10.73L135.04-10.73L135.04-10.73Q136.66-7.99 139.28-6.52L139.28-6.52L139.28-6.52Q141.91-5.04 144.94-5.04L144.94-5.04L144.94-5.04Q148.46-4.97 151.16-6.26L151.16-6.26L151.16-6.26Q153.86-7.56 156.67-10.08L156.67-10.08ZM183.67 1.01L183.67 1.01Q178.70 1.01 174.38-1.22L174.38-1.22L174.38-1.22Q170.06-3.46 167.51-7.56L167.51-7.56L167.51-7.56Q164.95-11.66 164.95-16.92L164.95-16.92L164.95-16.92Q164.95-22.25 167.51-26.32L167.51-26.32L167.51-26.32Q170.06-30.38 174.38-32.62L174.38-32.62L174.38-32.62Q178.70-34.85 183.67-34.85L183.67-34.85L183.67-34.85Q188.57-34.85 192.85-32.62L192.85-32.62L192.85-32.62Q197.14-30.38 199.73-26.28L199.73-26.28L199.73-26.28Q202.32-22.18 202.32-16.92L202.32-16.92L202.32-16.92Q202.32-11.66 199.80-7.56L199.80-7.56L199.80-7.56Q197.28-3.46 193.00-1.22L193.00-1.22L193.00-1.22Q188.71 1.01 183.67 1.01L183.67 1.01ZM183.67-4.68L183.67-4.68Q186.91-4.68 189.50-6.19L189.50-6.19L189.50-6.19Q192.10-7.70 193.57-10.48L193.57-10.48L193.57-10.48Q195.05-13.25 195.05-16.92L195.05-16.92L195.05-16.92Q195.05-20.59 193.57-23.36L193.57-23.36L193.57-23.36Q192.10-26.14 189.50-27.65L189.50-27.65L189.50-27.65Q186.91-29.16 183.67-29.16L183.67-29.16L183.67-29.16Q178.70-29.16 175.50-25.81L175.50-25.81L175.50-25.81Q172.30-22.46 172.30-16.92L172.30-16.92L172.30-16.92Q172.30-11.38 175.50-8.03L175.50-8.03L175.50-8.03Q178.70-4.68 183.67-4.68L183.67-4.68ZM250.20-5.76L251.78-0.65L251.78-0.65Q249.34 0.72 246.38 0.72L246.38 0.72L246.38 0.72Q243.00 0.72 240.91-1.30L240.91-1.30L240.91-1.30Q238.82-3.31 238.54-7.06L238.54-7.06L238.54-7.06Q234.94-3.10 231.48-1.08L231.48-1.08L231.48-1.08Q228.02 0.94 224.21 0.94L224.21 0.94L224.21 0.94Q218.59 0.94 215.53-2.81L215.53-2.81L215.53-2.81Q212.47-6.55 212.47-13.82L212.47-13.82L212.47-28.22L205.70-28.22L205.70-33.91L219.53-33.91L219.53-14.04L219.53-14.04Q219.53-10.01 221.22-7.81L221.22-7.81L221.22-7.81Q222.91-5.62 226.66-5.62L226.66-5.62L226.66-5.62Q232.20-5.62 238.46-12.60L238.46-12.60L238.46-28.22L232.27-28.22L232.27-33.91L245.52-33.91L245.52-8.71L245.52-8.71Q245.52-5.18 247.97-5.18L247.97-5.18L247.97-5.18Q249.41-5.18 250.20-5.76L250.20-5.76ZM281.81-7.70L284.26-2.38L284.26-2.38Q281.59-0.79 279.04 0.07L279.04 0.07L279.04 0.07Q276.48 0.94 273.17 0.94L273.17 0.94L273.17 0.94Q267.62 0.94 264.35-2.56L264.35-2.56L264.35-2.56Q261.07-6.05 261.07-12.53L261.07-12.53L261.07-28.22L253.51-28.22L253.51-33.91L261.07-33.91L261.07-43.34L268.13-43.34L268.13-33.91L279.36-33.91L279.36-28.22L268.13-28.22L268.13-12.46L268.13-12.46Q268.13-8.78 269.78-7.06L269.78-7.06L269.78-7.06Q271.44-5.33 274.25-5.33L274.25-5.33L274.25-5.33Q276.26-5.33 278.06-5.94L278.06-5.94L278.06-5.94Q279.86-6.55 281.81-7.70L281.81-7.70ZM370.30-43.42L361.01-43.42L361.01-5.98L370.30-5.98L370.30 0L344.38 0L344.38-5.98L353.52-5.98L353.52-22.25L324.94-22.25L324.94-5.98L334.08-5.98L334.08 0L308.16 0L308.16-5.98L317.45-5.98L317.45-43.42L308.16-43.42L308.16-49.39L334.08-49.39L334.08-43.42L324.94-43.42L324.94-27.94L353.52-27.94L353.52-43.42L344.38-43.42L344.38-49.39L370.30-49.39L370.30-43.42ZM406.22-9.65L409.25-5.04L409.25-5.04Q402.34 1.01 393.48 1.01L393.48 1.01L393.48 1.01Q388.66 1.01 384.34-1.01L384.34-1.01L384.34-1.01Q380.02-3.02 377.35-6.91L377.35-6.91L377.35-6.91Q374.69-10.80 374.69-16.13L374.69-16.13L374.69-16.13Q374.69-21.82 377.42-26.06L377.42-26.06L377.42-26.06Q380.16-30.31 384.55-32.58L384.55-32.58L384.55-32.58Q388.94-34.85 393.77-34.85L393.77-34.85L393.77-34.85Q398.02-34.85 401.36-33.48L401.36-33.48L401.36-33.48Q404.71-32.11 406.62-29.66L406.62-29.66L406.62-29.66Q408.53-27.22 408.53-24.05L408.53-24.05L408.53-24.05Q408.53-19.30 404.46-16.67L404.46-16.67L404.46-16.67Q400.39-14.04 394.70-14.04L394.70-14.04L394.70-14.04Q391.03-14.04 387.86-14.80L387.86-14.80L387.86-14.80Q384.70-15.55 381.46-16.99L381.46-16.99L381.46-16.34L381.46-16.34Q381.46-12.96 383.08-10.37L383.08-10.37L383.08-10.37Q384.70-7.78 387.43-6.41L387.43-6.41L387.43-6.41Q390.17-5.04 393.41-5.04L393.41-5.04L393.41-5.04Q400.75-5.04 406.22-9.65L406.22-9.65ZM394.27-29.23L394.27-29.23Q390.38-29.23 387.04-27.00L387.04-27.00L387.04-27.00Q383.69-24.77 382.25-20.95L382.25-20.95L382.25-20.95Q387.72-19.01 393.19-19.01L393.19-19.01L393.19-19.01Q396.79-19.01 399.13-20.34L399.13-20.34L399.13-20.34Q401.47-21.67 401.47-24.05L401.47-24.05L401.47-24.05Q401.47-26.35 399.46-27.79L399.46-27.79L399.46-27.79Q397.44-29.23 394.27-29.23L394.27-29.23ZM444.96-34.78L447.98-34.78L447.98-20.38L441.72-20.38L441.72-27.79L441.72-27.79Q438.91-27.79 435.60-25.70L435.60-25.70L435.60-25.70Q432.29-23.62 428.76-19.80L428.76-19.80L428.76-5.69L436.46-5.69L436.46 0L414.07 0L414.07-5.69L421.70-5.69L421.70-28.22L414.07-28.22L414.07-33.91L428.76-33.91L428.76-25.42L428.76-25.42Q432.58-29.81 436.72-32.29L436.72-32.29L436.72-32.29Q440.86-34.78 444.96-34.78L444.96-34.78ZM472.18 1.01L472.18 1.01Q467.21 1.01 462.89-1.22L462.89-1.22L462.89-1.22Q458.57-3.46 456.01-7.56L456.01-7.56L456.01-7.56Q453.46-11.66 453.46-16.92L453.46-16.92L453.46-16.92Q453.46-22.25 456.01-26.32L456.01-26.32L456.01-26.32Q458.57-30.38 462.89-32.62L462.89-32.62L462.89-32.62Q467.21-34.85 472.18-34.85L472.18-34.85L472.18-34.85Q477.07-34.85 481.36-32.62L481.36-32.62L481.36-32.62Q485.64-30.38 488.23-26.28L488.23-26.28L488.23-26.28Q490.82-22.18 490.82-16.92L490.82-16.92L490.82-16.92Q490.82-11.66 488.30-7.56L488.30-7.56L488.30-7.56Q485.78-3.46 481.50-1.22L481.50-1.22L481.50-1.22Q477.22 1.01 472.18 1.01L472.18 1.01ZM472.18-4.68L472.18-4.68Q475.42-4.68 478.01-6.19L478.01-6.19L478.01-6.19Q480.60-7.70 482.08-10.48L482.08-10.48L482.08-10.48Q483.55-13.25 483.55-16.92L483.55-16.92L483.55-16.92Q483.55-20.59 482.08-23.36L482.08-23.36L482.08-23.36Q480.60-26.14 478.01-27.65L478.01-27.65L478.01-27.65Q475.42-29.16 472.18-29.16L472.18-29.16L472.18-29.16Q467.21-29.16 464.00-25.81L464.00-25.81L464.00-25.81Q460.80-22.46 460.80-16.92L460.80-16.92L460.80-16.92Q460.80-11.38 464.00-8.03L464.00-8.03L464.00-8.03Q467.21-4.68 472.18-4.68L472.18-4.68Z"></path>
                </g>
                <g id="" class="logo--name svgSloganText_1 sloganBox" transform="scale(1) translate(198.4,254.4)" fill="">
                    <path d=""></path>
                </g>
            </g>
        </g>
    </g>
</svg>