<svg viewBox="0 0 32 32" xmlns="http://www.w3.org/2000/svg">
<defs>
<style>.cls-1{fill:none;}</style>
</defs>
<path d="m16 29a4 4 0 0 1-4-4 1 1 0 0 1 1-1h6a1 1 0 0 1 1 1 4 4 0 0 1-4 4zm-1.73-3a2 2 0 0 0 3.46 0z"/>
<path d="m18 7h-4a1 1 0 0 1-1-1 3 3 0 0 1 6 0 1 1 0 0 1-1 1zm-2-2z"/>
<path d="M27,26H5a1,1,0,0,1-1-1,7,7,0,0,1,3-5.75V14a9,9,0,0,1,8.94-9h.11a9,9,0,0,1,9,9v5.25A7,7,0,0,1,28,25h0A1,1,0,0,1,27,26ZM6.1,24H25.9a5,5,0,0,0-2.4-3.33,1,1,0,0,1-.5-.87V14A7,7,0,1,0,9,14v5.8a1,1,0,0,1-.5.87A5,5,0,0,0,6.1,24Z"/>
<rect class="cls-1" width="32" height="32"/>
</svg>
